<svg xmlns="http://www.w3.org/2000/svg" viewBox="0 0 24 24"><g><circle cx="12" cy="12" r="12" fill="#fff"/><path d="M21.6 12.227c0-.818-.073-1.597-.209-2.345H12v4.44h5.377a4.6 4.6 0 0 1-2.004 3.018v2.5h3.24c1.898-1.75 2.987-4.33 2.987-7.613z" fill="#4285F4"/><path d="M12 22c2.7 0 4.97-.89 6.627-2.41l-3.24-2.5c-.9.6-2.05.96-3.387.96-2.6 0-4.8-1.76-5.59-4.13H3.05v2.59A9.99 9.99 0 0 0 12 22z" fill="#34A853"/><path d="M6.41 13.92A5.98 5.98 0 0 1 6 12c0-.67.12-1.32.34-1.92V7.49H3.05A9.99 9.99 0 0 0 2 12c0 1.64.39 3.19 1.05 4.51l3.36-2.59z" fill="#FBBC05"/><path d="M12 6.58c1.47 0 2.78.51 3.81 1.51l2.86-2.86C16.97 3.89 14.7 3 12 3A9.99 9.99 0 0 0 3.05 7.49l3.36 2.59C7.2 8.34 9.4 6.58 12 6.58z" fill="#EA4335"/></g></svg>
